<svg xmlns="http://www.w3.org/2000/svg" viewBox="0 0 500 500"><g id="freepik--Shadow--inject-3"><ellipse id="freepik--path--inject-3" cx="250" cy="416.24" rx="193.89" ry="11.32" style="fill:#f5f5f5"></ellipse></g><g id="freepik--Canvas--inject-3"><polygon points="154.36 413.22 160.13 413.22 171.84 90.33 166.06 90.33 154.36 413.22" style="fill:#006BAA"></polygon><polygon points="251.54 413.22 245.76 413.22 192.06 90.33 197.84 90.33 251.54 413.22" style="fill:#006BAA"></polygon><polygon points="124.62 413.22 130.4 413.22 186.04 78.83 180.26 78.83 124.62 413.22" style="fill:#006BAA"></polygon><rect x="169.18" y="94.83" width="26.02" height="4.13" transform="translate(364.37 193.8) rotate(180)" style="fill:#006BAA"></rect><rect x="163.1" y="292" width="65.11" height="4.5" transform="translate(391.3 588.5) rotate(180)" style="fill:#006BAA"></rect><rect x="127.6" y="134.32" width="1" height="4.61" transform="translate(-9.79 9.89) rotate(-4.26)" style="fill:#006BAA"></rect><rect x="126.43" y="112.55" width="1" height="16.48" transform="translate(-8.61 9.74) rotate(-4.25)" style="fill:#006BAA"></rect><polygon points="140.72 266.88 142.7 266.9 130.2 97.55 128.22 97.53 140.72 266.88" style="fill:#006BAA"></polygon><polygon points="142.7 266.9 260.19 268.03 247.69 98.68 130.2 97.55 142.7 266.9" style="fill:#006BAA"></polygon><polygon points="142.7 266.9 260.19 268.03 247.69 98.68 130.2 97.55 142.7 266.9" style="fill:#fff;opacity:0.8"></polygon><polygon points="146.05 265.93 258.11 265.99 245.99 99.65 132.32 99.58 146.05 265.93" style="fill:#fff"></polygon><path d="M192.13,269.2h30a2.31,2.31,0,0,0,2.29-2.07l.64-6H190.43l-.59,5.47A2.31,2.31,0,0,0,192.13,269.2Z" style="fill:#006BAA"></path></g><g id="freepik--Character--inject-3"><path d="M315.63,172.94a19.88,19.88,0,0,1-3.23-1.59c-1.14-.69-2.32-1.44-3.48-2.26-2.33-1.64-4.65-3.45-6.95-5.31-4.57-3.75-6.79-5.34-11.22-9.35l-4.56,4.1A104.64,104.64,0,0,0,296,170.31c2.17,2.26,4.44,4.45,6.9,6.56,1.23,1,2.51,2.1,3.9,3.08a30.13,30.13,0,0,0,4.74,2.82,15.29,15.29,0,0,0,3.35,1.1,9.1,9.1,0,0,0,5.45-.55,8.22,8.22,0,0,0,2.82-2.13,8.86,8.86,0,0,0,.92-1.3c.22-.4.44-.84.6-1.22l.21-.57.15-.47.18-.6Z" style="fill:#ffb573"></path><path d="M298.52,235.06c1.91-11.08,4.77-16.73,6.1-18.89,1.06-3.06,2.6-5.54,3.33-9.3-.74-13.79-.24-32.87,1.28-36,.87-1.38,7-4.74,7.49-4.86.92-8.82,7.16-16.55,7.16-16.55a35.24,35.24,0,0,1,4.79,0c-6.18,8.22-7,13.53-7.49,15.71a80.27,80.27,0,0,1,19.77-.31c1.78-8.79,9.28-13.88,9.28-13.88a19,19,0,0,1,3.86.88c-6.41,6.92-7.6,11.21-8.39,13.6,2.69.4,5.75,5.56,5.75,5.56-4.38,17.84-7.6,33.38-7.68,37.21s1.46,3,2,6.46c5.24.66,5.71,1.66,5.71,1.66a8.38,8.38,0,0,1-.56,3.89,22.68,22.68,0,0,0-5.48-1.23c-4.93,26.24-11.83,51.42-12.34,76.77l-54.41-1.51S291.12,247.09,298.52,235.06Z" style="fill:#fff"></path><path d="M294.14,156.28l-1.52-6.22L284,154.67s2.67,7.11,6.67,6.46l2.44-1.87A2.89,2.89,0,0,0,294.14,156.28Z" style="fill:#ffb573"></path><polygon points="287.55 143.53 282.45 151.23 283.98 154.67 292.62 150.06 287.55 143.53" style="fill:#ffb573"></polygon><path d="M350.61,130.16c-2.38,5.89-5.77,16.73-2.46,21-3.87,3-8.83,6.43-15.89,6.2s-4.84-5-2.46-7.46c6.91-1.13,7.75-6.08,7.55-10.79Z" style="fill:#ffb573"></path><path d="M331.3,116.41a.38.38,0,0,0,.37,0,3,3,0,0,1,2.79-.12.39.39,0,0,0,.53-.16.39.39,0,0,0-.15-.52,3.84,3.84,0,0,0-3.53.12.38.38,0,0,0-.16.52A.33.33,0,0,0,331.3,116.41Z" style="fill:#263238"></path><path d="M331.72,120a23.58,23.58,0,0,1-4.23,4.87,3.81,3.81,0,0,0,3,1.22Z" style="fill:#ed893e"></path><path d="M331.72,120.21c-.13.64-.59,1.1-1,1s-.65-.69-.52-1.33.59-1.1,1-1S331.86,119.56,331.72,120.21Z" style="fill:#263238"></path><path d="M353.72,122.69c-2.15,7.82-3,12.5-7.85,15.73-7.3,4.86-16.31-.81-16.55-9.11-.21-7.48,3.33-19,11.74-20.53A11.05,11.05,0,0,1,353.72,122.69Z" style="fill:#ffb573"></path><path d="M336.78,124a10.94,10.94,0,0,0,.28,9.89c1.61,3.28,2.86,5.28,9.06,6.32s4.11-7.49,7-10.88,13.16-14,2.77-16.66c2.23-7.84-3.4-10.45-10.58-8.28s-16.9,4.85-15.58.5c0,0-8.56,10.78,10,9.5C333.62,119.61,336.78,124,336.78,124Z" style="fill:#263238"></path><path d="M340.28,105.42a20.06,20.06,0,0,1,10.61-1.76c5.8.48,10.36,3.5,12,11.58s.5,15.09-3.42,14.39c-1.29-1.63-6.6,2.7-6.6,2.7-1.11,2.21-8.69-3.41-11.94-9.83S335.57,106.17,340.28,105.42Z" style="fill:#006BAA"></path><path d="M340.28,105.42a20.06,20.06,0,0,1,10.61-1.76c5.8.48,10.36,3.5,12,11.58s.5,15.09-3.42,14.39c-1.29-1.63-6.6,2.7-6.6,2.7-1.11,2.21-8.69-3.41-11.94-9.83S335.57,106.17,340.28,105.42Z" style="fill:#fff;opacity:0.30000000000000004"></path><path d="M337,105.89c-2.67.44-1.72,8.89,1.28,15.83s8.08,12.95,13.27,13.78a4.39,4.39,0,0,0,1.39-3.17c-1.44-1-6.51-3.61-11.17-12.94s-1.44-14-1.44-14C340.18,104.79,337,105.89,337,105.89Z" style="fill:#006BAA"></path><path d="M339.34,124a7.39,7.39,0,0,1-3,4c-1.88,1.21-3.19-.26-3-2.34.19-1.86,1.4-4.74,3.43-5.11S339.94,122,339.34,124Z" style="fill:#ffb573"></path><polygon points="320.11 407.9 311.94 407.9 313.57 388.98 321.74 388.98 320.11 407.9" style="fill:#ffb573"></polygon><path d="M310.85,407h9.95a.71.71,0,0,1,.7.56l1.61,7.26a1.19,1.19,0,0,1-1.19,1.45c-3.21-.05-5.54-.24-9.58-.24-2.48,0-7.94.26-11.37.26s-3.87-3.39-2.47-3.7c6.29-1.38,9-3.27,11-5.09A2,2,0,0,1,310.85,407Z" style="fill:#263238"></path><polygon points="321.74 388.99 313.57 388.99 312.73 398.74 320.9 398.74 321.74 388.99" style="opacity:0.2"></polygon><path d="M287.88,139.12c-1,.31-.82.84-.94,1.31l-.25,1.44-.5,2.88-.92,5.78q-.43,2.88-.83,5.79c-.22,1.94-.5,3.87-.68,5.82a.51.51,0,0,0,1,.17c.51-1.89.92-3.79,1.38-5.69s.84-3.81,1.23-5.72l1.14-5.73.53-2.88.27-1.43c0-.49.4-.92-.43-1.57A1.1,1.1,0,0,0,287.88,139.12Z" style="fill:#263238"></path><path d="M288.17,139.63c1.05.2,3-.45,2.39-3.11s-2.23-3.29-.14-5.19C286.45,133.62,284.66,138.93,288.17,139.63Z" style="fill:#006BAA"></path><path d="M360.53,158.27c-11.41,29.76-9.19,60-10.55,66.4l-43.48-1.35c-1.15-38.19,5.18-62.46,9.1-69.72a5.24,5.24,0,0,1,3.77-2.72c1.15-.18,2.63-.38,4.29-.56,1.21-.13,2.51-.25,3.87-.33.74-.05,1.5-.08,2.27-.1a158.61,158.61,0,0,1,18.36,1.26c1.14.14,2.3.31,3.42.49s2.05.36,3,.55c1.21.23,2.34.48,3.34.71A3.86,3.86,0,0,1,360.53,158.27Z" style="fill:#006BAA"></path><path d="M310.49,169.72l-1.37,5c33.05,10.68,19.55-25.27,19.55-25.27a17.49,17.49,0,0,0-4.79,0C330.28,167.33,324.22,176.07,310.49,169.72Z" style="fill:#fff"></path><path d="M328.39,161.92c7.8-.28,11.56,13.72,11.56,13.72l-1,.75,6.81,11.78-8,4.66-7.47-11.47-1.9,1.41a29.2,29.2,0,0,1-7.85-9.21C316.22,165.48,318.93,162.24,328.39,161.92Z" style="opacity:0.2"></path><path d="M348.76,189.45a10.3,10.3,0,0,0-.44-2,9.2,9.2,0,0,0-.33-.89l-.3-.67c-.57-1.27-1.13-2.56-1.76-3.79a78.18,78.18,0,0,0-4.13-7.24,80.62,80.62,0,0,0-4.84-6.76c-.88-1.08-1.77-2.14-2.71-3.18-.46-.53-.95-1-1.43-1.56l-.77-.77-.85-.83-8.55,9,1.1,1.19c.4.43.8.86,1.2,1.31.79.89,1.57,1.82,2.33,2.75,1.55,1.86,3,3.78,4.46,5.74s2.8,4,4.05,6c.62.95,1.17,1.93,1.74,2.91a13.41,13.41,0,0,1-2.34,1.37,43.48,43.48,0,0,1-6.57,2.34c-4.69,1.31-9.75,2.31-14.69,3.21l.25,6.13a85.69,85.69,0,0,0,16.23-.47,46,46,0,0,0,8.43-1.83,21.55,21.55,0,0,0,4.56-2.07,13.44,13.44,0,0,0,2.46-1.92,10.19,10.19,0,0,0,2.26-3.31A9.43,9.43,0,0,0,348.76,189.45Z" style="fill:#ffb573"></path><path d="M316.83,197l-6.38.66,3.4,9.17s7.41-1.67,7.31-5.72l-1.52-2.67A2.9,2.9,0,0,0,316.83,197Z" style="fill:#ffb573"></path><polygon points="304.7 200.67 305.99 209.17 313.85 206.88 310.45 197.7 304.7 200.67" style="fill:#ffb573"></polygon><path d="M324.15,150.26c7.77.82,17.23,20.44,17.23,20.44l-13,8.7s-5.4-1.91-11.22-10.15C310.19,159.33,314,149.21,324.15,150.26Z" style="fill:#006BAA"></path><path d="M321.92,223.8S313,288,310.68,311.87c-2.55,26.18-1.45,83.77-1.45,83.77h15s4.2-57.59,8.91-83.12c5.36-29.07,21-72.63,16.88-87.84Z" style="fill:#263238"></path><path d="M324.61,242.92c-.54.18-2.92.46-5.42.87-1.81,13.46-4.2,31.47-6.06,46.67C320.05,278.35,326.49,255,324.61,242.92Z" style="opacity:0.2"></path><polygon points="307.96 396.92 325.58 396.92 326.3 391.66 307.9 390.81 307.96 396.92" style="fill:#006BAA"></polygon><polygon points="307.96 396.92 325.58 396.92 326.3 391.66 307.9 390.81 307.96 396.92" style="opacity:0.2"></polygon><path d="M320.55,400.6h0Z" style="fill:#006BAA"></path><path d="M308.14,408.38a10,10,0,0,0,2.14-.29.19.19,0,0,0,.15-.16.2.2,0,0,0-.09-.2c-.3-.18-2.93-1.8-3.84-1.34a.63.63,0,0,0-.33.55,1.18,1.18,0,0,0,.4,1A2.47,2.47,0,0,0,308.14,408.38Zm1.58-.57c-1.39.28-2.45.23-2.9-.14a.81.81,0,0,1-.26-.7c0-.16.07-.21.12-.23C307.15,406.5,308.65,407.2,309.72,407.81Z" style="fill:#006BAA"></path><path d="M310.24,408.09a.19.19,0,0,0,.19-.21c0-.1-.2-2.45-1.15-3.23a1.11,1.11,0,0,0-.83-.25h0a.63.63,0,0,0-.61.51c-.17.91,1.46,2.7,2.3,3.16Zm-1.65-3.31a.7.7,0,0,1,.44.17,4.69,4.69,0,0,1,1,2.56c-.84-.64-1.88-2-1.78-2.53,0-.05,0-.16.28-.19h.09Z" style="fill:#006BAA"></path><polygon points="313.93 399.6 306.02 402.36 301.75 384.32 309.67 381.56 313.93 399.6" style="fill:#ffb573"></polygon><path d="M305.08,402.87c-.05-.08-1-2.07-2.29-2.51a1.45,1.45,0,0,0-1.12.06c-.4.2-.5.44-.5.64a.49.49,0,0,0,0,.12c.19.92,2.63,1.9,3.71,2a.18.18,0,0,0,.13,0l0,0A.2.2,0,0,0,305.08,402.87Zm-3.52-1.76a.23.23,0,0,1,.11-.23.83.83,0,0,1,.17-.11,1.06,1.06,0,0,1,.45-.11,1.27,1.27,0,0,1,.38.07,4.54,4.54,0,0,1,1.88,2C303.4,402.5,301.67,401.66,301.56,401.11Z" style="fill:#006BAA"></path><path d="M305,403.11a.2.2,0,0,0,.06-.19.19.19,0,0,0-.16-.15c-.42-.06-4.07-.48-4.81.38a.6.6,0,0,0-.12.6h0a1.1,1.1,0,0,0,.66.76c1.12.43,3.2-.69,4.34-1.39Zm-4.56.24c.5-.41,2.4-.39,3.83-.26-1.58.9-2.87,1.3-3.5,1.05a.69.69,0,0,1-.43-.5.21.21,0,0,1,0-.23A.34.34,0,0,1,300.47,403.35Z" style="fill:#006BAA"></path><path d="M305.39,401.77l8.36-3.09a.71.71,0,0,1,.85.28l4,6.25A1.19,1.19,0,0,1,318,407c-3,1.06-7.46,2.5-11.25,3.9-4.44,1.64-4.41,1.84-9.62,3.76-3.14,1.17-5.19-1.69-4-2.46,5.51-3.53,6.59-4,10.58-9.13A3.77,3.77,0,0,1,305.39,401.77Z" style="fill:#263238"></path><polygon points="301.76 384.33 303.95 393.63 311.87 390.86 309.67 381.56 301.76 384.33" style="opacity:0.2"></polygon><path d="M303.41,306.18c6.93-17.39,31.67-82,31.67-82l-28.58-.89s-19,53.36-26.47,77.94c-7.8,25.56,20.24,90.32,20.24,90.32l14.38-4.49S296.48,323.57,303.41,306.18Z" style="fill:#263238"></path><polygon points="299.58 393.09 315.82 387.37 314.65 382.38 297.77 387.45 299.58 393.09" style="fill:#006BAA"></polygon><polygon points="299.58 393.09 315.82 387.37 314.65 382.38 297.77 387.45 299.58 393.09" style="opacity:0.2"></polygon><path d="M306,213.91l-.46,4.47c20.21.54,29.59,2.91,29.59,2.91a25.38,25.38,0,0,0,.45-4.08C328.2,214.38,314.2,213.75,306,213.91Z" style="fill:#fff"></path><path d="M351.45,216.33l-.56,3.89A85.15,85.15,0,0,0,335,221.29a8.58,8.58,0,0,1,.53-4.08C343.78,215.14,349,215.75,351.45,216.33Z" style="fill:#fff"></path><path d="M354.09,151.84l-3.86-.88c.66,15.29,5.25,23.75,5.25,23.75a15.84,15.84,0,0,0,1.8-6A36.24,36.24,0,0,1,354.09,151.84Z" style="fill:#fff"></path><path d="M332.89,221.29c-.34,1.16,2.26.62,2.64.24s4.61-4.92,2.34-5.17-2.45.25-2.45.25a5.48,5.48,0,0,0-2.75-.84C331.09,215.75,333.6,218.92,332.89,221.29Z" style="fill:#fff"></path><path d="M332.66,216.69c-1.73,1.35-6.63,7.81-6.92,14.52a31.88,31.88,0,0,1,3.88-1.56s.83-5.55,3.83-8.92Z" style="fill:#fff"></path><path d="M337.13,217.18c1.56,2.15,5.92,11.07,6.07,18.46a45.78,45.78,0,0,0-3.52-3.21s-1.31-7.15-4-12Z" style="fill:#fff"></path><polygon points="322.66 247.29 319.66 247.29 291.22 416.24 294.22 416.24 322.66 247.29" style="fill:#006BAA"></polygon><polygon points="356.89 247.29 353.89 247.29 325.44 416.24 328.44 416.24 356.89 247.29" style="fill:#006BAA"></polygon><polygon points="356.89 247.29 353.89 247.29 325.44 416.24 328.44 416.24 356.89 247.29" style="opacity:0.2"></polygon><polygon points="360.77 247.29 363.77 247.29 392.22 416.24 389.22 416.24 360.77 247.29" style="fill:#006BAA"></polygon><polygon points="326.55 247.29 329.55 247.29 358 416.24 355 416.24 326.55 247.29" style="fill:#006BAA"></polygon><path d="M322.62,239.89h38.2a3,3,0,0,1,3,3v4.44a0,0,0,0,1,0,0H319.66a0,0,0,0,1,0,0v-4.44A3,3,0,0,1,322.62,239.89Z" style="fill:#006BAA"></path></g></svg>