<svg height="511pt" viewBox="1 -34 511.999 511" width="511pt" xmlns="http://www.w3.org/2000/svg"><g fill-rule="evenodd"><path d="m66.519531 128.597656h253.414063c-11.25-4.394531-19.273438-15.398437-19.273438-28.164062 0-16.621094 13.578125-30.207032 30.1875-30.207032h72.566406c-38.066406-36.984374-89.96875-59.730468-147.199218-59.730468-83.226563 0-155.226563 48.128906-189.695313 118.101562zm0 0" fill="#579fff"/><path d="m300.660156 100.433594c0 12.765625 8.023438 23.769531 19.273438 28.164062h125.972656c-10.769531-21.867187-25.199219-41.578125-42.492188-58.371094h-72.566406c-16.609375 0-30.1875 13.585938-30.1875 30.207032zm0 0" fill="#cbe558"/><path d="m186.339844 313.101562h-120.925782c10.714844 22.433594 25.285157 42.6875 42.800782 59.902344h72.566406c16.613281 0 30.191406-13.613281 30.191406-30.207031 0-14.71875-10.660156-27.085937-24.632812-29.695313zm0 0" fill="#cbe558"/><path d="m210.972656 342.796875c0 16.59375-13.578125 30.207031-30.1875 30.207031h-72.570312c38.128906 37.410156 90.371094 60.5 148 60.5 84.128906 0 156.78125-49.210937 190.796875-120.402344h-260.671875c13.972656 2.609376 24.632812 14.976563 24.632812 29.695313zm0 0" fill="#579fff"/><path d="m186.339844 313.101562h282.101562c18.457032 0 33.5625-15.117187 33.5625-33.582031v-117.367187c0-18.464844-15.105468-33.554688-33.5625-33.554688h-424.914062c-18.453125 0-33.53125 15.089844-33.53125 33.554688v117.367187c0 18.464844 15.078125 33.582031 33.53125 33.582031zm0 0" fill="#ffbd5a"/></g><path d="m325.917969 204.582031c-2.863281 0-5.386719.964844-7.542969 2.953125-2.183594 1.957032-3.257812 4.453125-3.257812 7.488282 0 3.035156 1.074218 5.53125 3.257812 7.488281 2.15625 1.957031 4.679688 2.949219 7.542969 2.949219 2.945312 0 5.414062-.992188 7.425781-3.007813 2.011719-2.011719 3.003906-4.480469 3.003906-7.429687 0-2.867188-1.019531-5.332032-3.058594-7.375-2.042968-2.042969-4.507812-3.066407-7.371093-3.066407zm0 0"/><path d="m325.917969 243.527344c-2.863281 0-5.359375 1.019531-7.484375 3.0625-2.125 2.042968-3.203125 4.539062-3.203125 7.488281 0 2.78125 1.019531 5.273437 3.0625 7.488281 2.125 2.070313 4.675781 3.089844 7.625 3.089844 2.863281 0 5.328125-1.019531 7.367187-3.089844 2.042969-2.042968 3.0625-4.480468 3.0625-7.347656 0-2.949219-1.019531-5.472656-3.0625-7.574219-2.039062-2.066406-4.503906-3.117187-7.367187-3.117187zm0 0"/><path d="m212.472656 193.890625h-5.753906l.113281-11.0625c0-2.691406-.933593-4.90625-2.835937-6.636719-1.871094-1.871094-4.050782-2.804687-6.488282-2.804687-2.636718 0-4.847656.90625-6.691406 2.75s-2.777344 4.082031-2.777344 6.691406v11.0625h-3.0625c-2.378906 0-4.421874.792969-6.121093 2.410156-1.730469 1.589844-2.578125 3.574219-2.578125 5.957031 0 2.210938.792968 4.167969 2.4375 5.871094 1.644531 1.730469 3.742187 2.582032 6.261718 2.582032h3.203126v40.925781c0 1.390625.226562 2.640625.679687 3.746093.425781 1.105469 1.105469 2.097657 2.015625 3.003907 1.8125 1.875 3.996094 2.808593 6.632812 2.808593 2.691407 0 4.929688-.933593 6.6875-2.808593 1.757813-1.898438 2.636719-4.140625 2.636719-6.75l-.113281-40.785157h5.640625c2.382813 0 4.394531-.851562 6.066406-2.523437s2.523438-3.660156 2.523438-5.957031c0-2.378906-.820313-4.394532-2.464844-6.011719-1.617187-1.644531-3.628906-2.46875-6.011719-2.46875zm0 0"/><path d="m161.902344 193.890625h-5.78125l.140625-11.0625c0-2.691406-.960938-4.90625-2.832031-6.636719-1.871094-1.871094-4.054688-2.804687-6.492188-2.804687-2.636719 0-4.875.90625-6.691406 2.75-1.839844 1.84375-2.777344 4.082031-2.777344 6.691406v11.0625h-3.0625c-2.378906 0-4.421875.792969-6.148438 2.410156-1.703124 1.589844-2.582031 3.574219-2.582031 5.957031 0 2.210938.824219 4.167969 2.46875 5.871094 1.644531 1.730469 3.710938 2.582032 6.261719 2.582032h3.175781v40.925781c0 1.390625.226563 2.640625.679688 3.746093.453125 1.105469 1.136719 2.097657 2.042969 3.003907 1.785156 1.875 3.996093 2.808593 6.632812 2.808593 2.691406 0 4.929688-.933593 6.691406-2.808593 1.753906-1.898438 2.632813-4.140625 2.632813-6.75l-.140625-40.785157h5.667968c2.355469 0 4.394532-.851562 6.066407-2.523437s2.523437-3.660156 2.523437-5.957031c0-2.378906-.820312-4.394532-2.464844-6.011719-1.644531-1.644531-3.628906-2.46875-6.011718-2.46875zm0 0"/><path d="m93.902344 192.671875c-5.332032 0-10.148438 1.246094-14.488282 3.800781l-2.71875 1.84375v-24.703125c0-2.695312-.9375-4.910156-2.808593-6.609375-1.8125-1.898437-4.023438-2.835937-6.632813-2.835937-2.632812 0-4.875.9375-6.746094 2.835937-1.898437 1.871094-2.832031 4.082032-2.832031 6.609375v78.253907c0 2.550781.933594 4.765624 2.832031 6.636718 1.871094 1.871094 4.113282 2.835938 6.746094 2.835938 2.609375 0 4.847656-.9375 6.691406-2.78125s2.75-4.054688 2.75-6.691406v-32.304688c0-3.035156 1.105469-5.617188 3.316407-7.746094 2.210937-2.125 4.875-3.175781 7.992187-3.175781 2.949219 0 5.472656 1.078125 7.597656 3.261719 2.128907 2.15625 3.203126 4.765625 3.203126 7.800781v32.164063c0 2.636718.9375 4.878906 2.808593 6.75 1.898438 1.898437 4.136719 2.835937 6.773438 2.835937 2.695312 0 4.90625-.9375 6.632812-2.835937 1.871094-1.871094 2.808594-4.113282 2.808594-6.75v-35.257813c0-7.03125-1.929687-12.5625-5.757813-16.5625-4.847656-4.9375-10.882812-7.375-18.167968-7.375zm0 0"/><path d="m293.882812 208.753906c-1.359374-2.242187-3.03125-4.367187-5.015624-6.351562-6.207032-6.214844-13.632813-9.304688-22.308594-9.304688-6.347656 0-12.132813 1.585938-17.375 4.792969-2.863282-7.121094-17.546875-9.046875-17.546875 4.734375v76.015625c0 2.808594.933593 5.046875 2.804687 6.777344 1.898438 1.875 4.140625 2.808593 6.777344 2.808593 2.691406 0 4.847656-.992187 6.605469-2.808593 1.839843-1.871094 2.832031-4.027344 2.832031-6.636719v-26.375c4.847656 2.605469 10.148438 3.941406 15.902344 3.941406 8.929687 0 16.414062-3.035156 22.507812-9.132812 6.066406-6.070313 9.101563-13.558594 9.101563-22.492188 0-3.832031-.597657-7.40625-1.816407-10.75-.566406-1.785156-1.417968-3.546875-2.46875-5.21875zm-27.636718 29.46875c-7.679688 0-13.890625-6.210937-13.890625-13.867187 0-7.660157 6.210937-13.898438 13.890625-13.898438 7.652344 0 13.863281 6.238281 13.863281 13.898438 0 7.65625-6.207031 13.867187-13.863281 13.867187zm0 0"/><path d="m468.441406 118.605469h-16.425781c-18.03125-34.117188-44.65625-62.980469-77.324219-83.734375-35.394531-22.484375-76.363281-34.371094-118.476562-34.371094-16.976563 0-33.835938 1.917969-50.113282 5.703125-5.378906 1.253906-8.722656 6.625-7.472656 12 1.25 5.378906 6.621094 8.71875 12 7.472656 14.792969-3.441406 30.128906-5.1875 45.585938-5.1875 44.519531 0 86.382812 14.324219 120.414062 39.742188h-45.78125c-22.15625 0-40.183594 18.035156-40.183594 40.203125 0 6.417968 1.582032 12.628906 4.414063 18.167968h-211.714844c15.191407-25.375 35.871094-47.265624 60.539063-63.882812 4.578125-3.082031 5.789062-9.292969 2.707031-13.871094s-9.292969-5.789062-13.875-2.707031c-30.378906 20.460937-55.269531 48.195313-72.320313 80.460937h-16.886718c-24 .003907-43.527344 19.539063-43.527344 43.550782v117.367187c0 24.027344 19.527344 43.578125 43.527344 43.578125h15.691406c10.875 21.179688 25.039062 40.390625 41.917969 56.964844.011719.007812.019531.019531.03125.027344 10.761719 10.566406 22.625 20.0625 35.4375 28.3125 35.664062 22.960937 77.023437 35.097656 119.605469 35.097656 42.582031 0 83.941406-12.136719 119.605468-35.097656 32.925782-21.199219 59.570313-50.601563 77.386719-85.304688h15.238281c24.015625 0 43.558594-19.550781 43.558594-43.578125v-117.367187c0-24.011719-19.539062-43.546875-43.558594-43.546875zm-157.785156-18.171875c0-11.144532 9.058594-20.210938 20.191406-20.210938h68.671875c11.21875 11.40625 21.167969 24.257813 29.582031 38.382813h-107.074218c-6.863282-3.378907-11.371094-10.476563-11.371094-18.171875zm-125.421875 222.664062c9.160156 2.0625 15.742187 10.21875 15.742187 19.699219 0 11.144531-9.058593 20.210937-20.195312 20.210937h-68.257812c-11.699219-11.871093-21.988282-25.25-30.519532-39.910156zm306.773437-43.578125c0 13.007813-10.570312 23.585938-23.566406 23.585938h-111.824218c-5.519532 0-9.996094 4.476562-9.996094 9.996093 0 5.519532 4.476562 9.996094 9.996094 9.996094h73.804687c-35.78125 61.480469-102.496094 100.410156-174.207031 100.410156-44.1875 0-86.472656-14.78125-120.800782-40.507812h45.371094c22.15625 0 40.183594-18.035156 40.183594-40.203125 0-7.105469-1.867188-13.84375-5.160156-19.699219h60.929687c5.519531 0 9.992188-4.476562 9.992188-9.996094 0-5.519531-4.472657-9.996093-9.992188-9.996093h-90.550781c-.015625 0-.03125 0-.050781 0h-142.609375c-12.976563 0-23.535156-10.578125-23.535156-23.585938v-117.367187c0-12.988282 10.558593-23.558594 23.535156-23.558594h22.949218.035157.027343 253.332032c.019531 0 .039062.003906.0625.003906.011718 0 .027344-.003906.039062-.003906h125.914063.027343.035157 22.492187c12.996094 0 23.566406 10.566406 23.566406 23.558594zm0 0"/><path d="m427.511719 170.320312-33.109375 82.308594c-.398438.964844-.652344 1.988282-.652344 3.035156 0 12.566407 15.589844 14.496094 19.359375 4.710938l33.25-82.511719c.425781-.933593.652344-2.011719.652344-3.144531 0-13.105469-15.902344-14.183594-19.5-4.398438zm0 0"/><path d="m403.925781 172.277344c0-13.132813-15.929687-14.179688-19.503906-4.425782l-33.105469 82.339844c-.425781.964844-.652344 1.984375-.652344 3.035156 0 12.535157 15.589844 14.464844 19.359376 4.679688l33.25-82.507812c.425781-.9375.652343-2.011719.652343-3.121094zm0 0"/><path d="m170.132812 38.8125c1.5 0 3.027344-.339844 4.460938-1.054688l.171875-.085937c4.9375-2.46875 6.9375-8.472656 4.46875-13.410156s-8.472656-6.941407-13.410156-4.46875l-.171875.082031c-4.9375 2.472656-6.9375 8.472656-4.46875 13.410156 1.753906 3.503906 5.28125 5.527344 8.949218 5.527344zm0 0"/><path d="m316.875 303.105469h-.199219c-5.519531 0-9.996093 4.476562-9.996093 9.996093 0 5.519532 4.476562 9.996094 9.996093 9.996094h.199219c5.519531 0 9.996094-4.476562 9.996094-9.996094 0-5.519531-4.476563-9.996093-9.996094-9.996093zm0 0"/></svg>