<?xml version="1.0" encoding="iso-8859-1"?>
<!-- Generator: Adobe Illustrator 19.0.0, SVG Export Plug-In . SVG Version: 6.00 Build 0)  -->
<svg version="1.1" id="Capa_1" xmlns="http://www.w3.org/2000/svg" xmlns:xlink="http://www.w3.org/1999/xlink" x="0px" y="0px"
	 viewBox="0 0 512 512" style="enable-background:new 0 0 512 512;" xml:space="preserve">
<path style="fill:#F2F2F2;" d="M512,256c0,30.062-5.183,58.911-14.702,85.713c-21.305,59.967-64.334,109.652-119.62,139.577
	C341.494,500.882,300.042,512,256,512c-44.711,0-86.737-11.463-123.308-31.608c-54.606-30.062-97.05-79.475-118.105-139.003
	C5.141,314.681,0,285.936,0,256C0,114.615,114.615,0,256,0S512,114.615,512,256z"/>
<g>
	<path style="fill:#4A4A4A;" d="M429.14,363.75c0,26.53-21.504,48.034-48.034,48.034c-18.014,0-33.698-9.916-41.921-24.586h-95.713
		c-10.648,52.036-56.038,91.554-110.78,93.194c-54.606-30.062-97.05-79.475-118.105-139.003
		c8.746-44.899,43.311-80.666,87.552-91.188l13.437,45.077c-32.016,6.322-56.247,34.617-56.247,68.472
		c0,38.484,31.316,69.799,69.81,69.799s69.799-31.316,69.799-69.799v-23.458h140.246c8.223-14.66,23.907-24.576,41.921-24.576
		C407.636,315.716,429.14,337.22,429.14,363.75z"/>
	<path style="fill:#4A4A4A;" d="M497.298,341.713c-21.305,59.967-64.334,109.652-119.62,139.577
		c-29.79-1.379-58.587-14.117-79.642-36.404l32.319-34.179c21.494,24.576,58.107,31.41,87.427,14.482
		c33.332-19.237,44.795-62.015,25.558-95.357c-19.247-33.332-62.025-44.795-95.357-25.548l-20.313,11.724L257.557,194.55
		c-16.812,0.209-33.249-8.411-42.245-24.012c-13.27-22.977-5.392-52.349,17.586-65.62c22.977-13.26,52.349-5.392,65.62,17.586
		c8.997,15.6,8.255,34.147-0.345,48.598l47.856,82.892c51.472-17.157,109.767,3.615,137.927,52.391
		C490.465,317.67,494.874,329.592,497.298,341.713z"/>
</g>
<path style="fill:#C93762;" d="M171.416,389.533c8.998-15.602,8.242-34.146-0.355-48.596l70.061-121.484l-20.314-11.715
	c-33.344-19.229-44.826-62.001-25.596-95.344s62.001-44.825,95.344-25.596c29.325,16.912,41.73,52.031,31.215,82.934l45.761,10.873
	c15.084-50.608-5.849-106.928-53.546-134.434C258.24,14.02,186.733,33.217,154.583,88.963
	c-28.138,48.791-16.946,109.655,23.662,145.637l-47.812,82.905c-16.813-0.205-33.242,8.429-42.241,24.032
	c-13.253,22.981-5.368,52.356,17.614,65.61C128.787,420.4,158.161,412.514,171.416,389.533z"/>
<g>
</g>
<g>
</g>
<g>
</g>
<g>
</g>
<g>
</g>
<g>
</g>
<g>
</g>
<g>
</g>
<g>
</g>
<g>
</g>
<g>
</g>
<g>
</g>
<g>
</g>
<g>
</g>
<g>
</g>
</svg>
