<svg xmlns="http://www.w3.org/2000/svg" viewBox="0 0 500 500"><g id="freepik--Floor--inject-8"><g id="freepik--floor--inject-8"><ellipse id="freepik--floor--inject-8" cx="250" cy="352.6" rx="217.1" ry="125.34" style="fill:#ebebeb"></ellipse><path d="M404.69,440.55l-1.18.69q-5.52,3.19-11.33,6.08h0c-.63.33-1.26.63-1.89.95q-9.45,4.62-19.56,8.53c-1.28.5-2.57,1-3.86,1.46l-.32.12-3.59,1.3-.79.26c-1.24.45-2.5.87-3.76,1.29s-2.79.92-4.19,1.36-2.76.86-4.15,1.29a2,2,0,0,0-.35.1l-3.13.92c-2.1.6-4.2,1.17-6.33,1.74-1.06.27-2.12.55-3.19.81s-2.18.55-3.28.82c-2.19.53-4.4,1-6.61,1.52l-3.33.71q-2.22.47-4.47.9c-1.47.29-2.95.55-4.44.83l-.11,0c-1.48.27-3,.53-4.45.77s-3,.49-4.49.72l-.25,0q-6.72,1-13.54,1.79c-.93.12-1.87.22-2.81.32s-1.82.18-2.74.27c-1.34.14-2.69.27-4,.38-1.07.1-2.14.19-3.21.26-.73.07-1.45.11-2.18.17s-1.69.12-2.53.17c-.65.05-1.29.09-1.94.12l-2.87.17c-.82.05-1.63.09-2.45.12s-1.87.09-2.8.11c-.41,0-.83,0-1.24,0-1.14.06-2.27.09-3.41.12-1.55,0-3.11.07-4.66.08s-3.33,0-5,0L32.9,352.48c0-.91,0-1.79.05-2.69,0-1.07.11-2.14.2-3.22,0-.5.09-1,.14-1.48s.11-1,.17-1.5.13-1,.2-1.5.11-.77.18-1.15c.17-1.12.38-2.22.61-3.34.11-.5.21-1,.33-1.49.22-1,.46-1.93.72-2.89.14-.53.29-1.06.44-1.58l.42-1.38c.32-1,.66-2.06,1-3.07.17-.5.35-1,.54-1.49h0c.38-1,.77-1.95,1.18-2.92.21-.49.42-1,.64-1.47s.38-.86.58-1.27c5.41-11.65,13.78-22.94,25.11-33.47l1.08-1,.68-.62c.41-.37.82-.74,1.24-1.09.75-.66,1.52-1.32,2.29-2l1.39-1.16c.46-.38.93-.77,1.41-1.15L75,278.44c1-.76,2-1.51,3-2.26l1.51-1.12,1.18-.87,2.1-1.47c.47-.32.93-.65,1.4-1h0q5.85-4,12.38-7.77c.12-.08.24-.14.37-.21Z" style="fill:#fafafa"></path></g></g><g id="freepik--Shadows--inject-8"><path d="M228.33,391.19a51.94,51.94,0,0,0-30.43,2c-3,1.13-6,2.71-7.47,5.49-2.56,4.79.58,10.7,4.49,14.47,7.21,6.95,17,10.59,26.71,12.89s19.76,3.41,29.35,6.26c13,3.88,25,10.85,37.8,15.39s27.58,6.47,39.71.29c5.48-2.79,10.53-8.08,10-14.21-.47-5.45-5.09-9.52-9.58-12.65-31.41-21.91-71.19-27-109.24-31.39" style="fill:#f0f0f0"></path></g><g id="freepik--Plants--inject-8"><g id="freepik--Palm--inject-8"><path d="M104.41,64.85s30.56,27.79,37,81.73c5.92,49.56-8.13,96.07-13.47,114.78-1.2,3.71,2.5,8,15.89,8s13.71-8,13.71-8,9.76-58,.89-109.52C149.65,101,128.13,77.47,112.54,62Z" style="fill:#b16668"></path><path d="M109.55,63.76s-5.3-14.11-35.29-14.53-50.57,36.52-53.82,59.4c0,0,8.12-9,18.63-13.87L50.61,73.91,45.35,93.1a34,34,0,0,0,13.89-5s4.78-12.79,10.41-20L66.07,84.83a18.73,18.73,0,0,0,9.58-1.78C81.14,80.64,97.61,75.41,109.55,63.76Z" style="fill:#FFC100"></path><path d="M107.5,64.5s-2-7.7,5.47-24.33c7.58-16.84,28-25,39.61-26.44s28.33.9,45.19,12.49A56.35,56.35,0,0,0,171,34.11a32.6,32.6,0,0,0-19.8-6s10.9,6.1,13.84,9.18c0,0-9,7.68-20,8.29,0,0-9.34-5.55-17-5.69,0,0,8.76,3.91,12.14,9.17C140.06,49.09,119.35,63.79,107.5,64.5Z" style="fill:#FFC100"></path><path d="M107.5,64.5s-2-7.7,5.47-24.33c7.58-16.84,28-25,39.61-26.44s28.33.9,45.19,12.49A56.35,56.35,0,0,0,171,34.11a32.6,32.6,0,0,0-19.8-6s10.9,6.1,13.84,9.18c0,0-9,7.68-20,8.29,0,0-9.34-5.55-17-5.69,0,0,8.76,3.91,12.14,9.17C140.06,49.09,119.35,63.79,107.5,64.5Z" style="opacity:0.15"></path><path d="M108.35,64.22s12.27-14.47,35.84-12.42,44.95,29.57,50.1,43.81c0,0-10.73-7.09-31.32-10L152.15,70.41l2.65,13.93L141,81.52,130.82,65.45l2.94,14.47S115.57,72.86,108.35,64.22Z" style="fill:#FFC100"></path><path d="M109.55,63.76a52.33,52.33,0,0,1-1.14,19.06c-2.59,9.54-7.71,14.66-7.71,14.66l-5.84-9,.28,18.74a48.38,48.38,0,0,1-9.76,15.46l-3.9-18-2.29,24.56s-12.77,17.18-16,25.56c0,0-7.1-30,3.54-54.67S91,61,109.55,63.76Z" style="fill:#FFC100"></path><path d="M109.55,63.76a52.33,52.33,0,0,1-1.14,19.06c-2.59,9.54-7.71,14.66-7.71,14.66l-5.84-9,.28,18.74a48.38,48.38,0,0,1-9.76,15.46l-3.9-18-2.29,24.56s-12.77,17.18-16,25.56c0,0-7.1-30,3.54-54.67S91,61,109.55,63.76Z" style="opacity:0.15"></path></g><g id="freepik--plants--inject-8"><path d="M436.88,201.69l-18.62,12.75,17.61-6.67a32.15,32.15,0,0,1-3.48,13.53s-11.63,5.64-17.95,11.6L429.93,228a17.17,17.17,0,0,1-.48,8.09c-.1.36-.21.73-.33,1.1-.82,2.47-2,7.16-4,12.71h0a81.84,81.84,0,0,1-6.4,14,57.5,57.5,0,0,1-4.26,6.29c-.09.13-.19.25-.29.38q-4.31-2.88-9-5.63c-1.79-4.58-3.76-15.68-4.12-24.69C399.75,205.8,427,188,448.28,182.9,448.28,182.9,440.5,191.36,436.88,201.69Z" style="fill:#FFC100"></path><path d="M436.88,201.69l-18.62,12.75,17.61-6.67a32.15,32.15,0,0,1-3.48,13.53s-11.63,5.64-17.95,11.6L429.93,228a17.17,17.17,0,0,1-.48,8.09c-.1.36-.21.73-.33,1.1-.82,2.47-2,7.16-4,12.71h0a81.84,81.84,0,0,1-6.4,14,57.5,57.5,0,0,1-4.26,6.29c-.09.13-.19.25-.29.38q-4.31-2.88-9-5.63c-1.79-4.58-3.76-15.68-4.12-24.69C399.75,205.8,427,188,448.28,182.9,448.28,182.9,440.5,191.36,436.88,201.69Z" style="opacity:0.25"></path><path d="M482.13,222.89h0c-.65.34-11.23,6-22.89,21l-17.62,1.72,12.7,4.37-8.79,10-18,.81,13.26,4.4s-6.83,8.73-17.09,12.15c-2.22-1.72-4.53-3.39-6.92-5.05l-2.23-1.5,0-.59h0a43.13,43.13,0,0,1,8.08-26.79,35.31,35.31,0,0,1,6.89-7.31C444.64,223.82,470.11,220.79,482.13,222.89Z" style="fill:#FFC100"></path><path d="M482.13,222.89h0c-.52.46-9.05,7.84-22.34,22.73l-18.17,0,12.7,4.37-8.79,10-18,.81,13.26,4.4s-6.83,8.73-17.09,12.15c-2.22-1.72-4.53-3.39-6.92-5.05l-2.23-1.5,0-.59h0a43.13,43.13,0,0,1,8.08-26.79,35.31,35.31,0,0,1,6.89-7.31C444.64,223.82,470.11,220.79,482.13,222.89Z" style="fill:#FFC100"></path><path d="M482.13,222.89c-19,.06-40.83,9.2-52.94,21.93a38.9,38.9,0,0,0-4,5.08h0s0,0,0,0a53.71,53.71,0,0,0-6.4,14h0a72.88,72.88,0,0,0-2,8.37l-2.23-1.5,0-.59h0a43.13,43.13,0,0,1,8.08-26.79,35.31,35.31,0,0,1,6.89-7.31C444.64,223.82,470.11,220.79,482.13,222.89Z" style="opacity:0.1"></path></g><g id="freepik--plants--inject-8"><path d="M112.06,350.92c-.48,12.12-3.21,25-5.62,31a63.54,63.54,0,0,1-5.44,9.86l-10.35-6c-10-15.27-13.84-32.66-16-39-2.38-7.18-1.09-12.25-1.09-12.25l20.67,6.49c-8.44-7.94-23.94-15.48-23.94-15.48a42.84,42.84,0,0,1-4.66-18l23.49,8.91-24.83-17A72.33,72.33,0,0,0,56.46,284a82.06,82.06,0,0,0-7.32-9.61,93.37,93.37,0,0,1,12.43,3.93C87.05,288.38,113.62,311.45,112.06,350.92Z" style="fill:#FFC100"></path><path d="M112.06,350.92c-.48,12.11-3.21,25-5.62,31a63,63,0,0,1-5.44,9.86l-10.35-6c-10-15.27-13.84-32.66-16-39-2.38-7.18-1.09-12.25-1.09-12.25l20.67,6.49c-8.44-7.94-23.94-15.48-23.94-15.48a42.84,42.84,0,0,1-4.66-18l23.49,8.91-24.83-17A72.33,72.33,0,0,0,56.46,284a82.06,82.06,0,0,0-7.32-9.61,93.37,93.37,0,0,1,12.43,3.93C87.05,288.38,113.62,311.45,112.06,350.92Z" style="opacity:0.25"></path><path d="M90.24,385.14s6.75-18.66-7.36-39-50.21-25.41-65.8-22.69c0,0,12,6,25.32,23.24l19.46,1.9-14,4.84,9.71,11,19.9.91-14.66,4.86S74.29,385,90.24,385.14Z" style="fill:#FFC100"></path><path d="M90.24,385.14s6.75-18.66-7.36-39-50.21-25.41-65.8-22.69c0,0,9.54,8.14,24.7,25.13H61.86l-14,4.84,9.71,11,19.9.91-14.66,4.86S74.29,385,90.24,385.14Z" style="fill:#FFC100"></path><path d="M82.88,346.16c14.11,20.32,7.36,39,7.36,39s-1.3-23.36-14.68-37.43-37.51-24.16-58.48-24.24C32.67,320.75,68.78,325.84,82.88,346.16Z" style="opacity:0.1"></path></g></g><g id="freepik--Character--inject-8"><g id="freepik--character--inject-8"><path d="M389.34,149.55a2.49,2.49,0,0,1,.43-.92,4.21,4.21,0,0,0-.09-4.27,5.05,5.05,0,0,1-.62-1c-.28-.78.07-1.64,0-2.47-.26-3.71-7-2.09-9.1-1.35-.61.21-3.62,1.18-5,1.67a20.23,20.23,0,0,0-.74-6.08c-1-3.85-4.89-5.28-5.07-2.94a44,44,0,0,1-1.31,7.87,24.06,24.06,0,0,1-1.79,5.52,29.25,29.25,0,0,1-5.57,7.91c-4.19,4-23.58,17.83-23.58,17.83-5.42-3.48-27.5-16.26-35-21.13-6.93-4.5-20.06-1.19-20.06-1.19L298.28,173s27.43,14.65,35.13,18.82c6.3,3.42,9.47,1.25,16.71-5.21h0c5.76-5.45,13.34-13.31,21.53-20.56,3.27-2.89,5.59-4.38,8-4.49.87,0,1.75-.09,2.62-.19,1.93-.21,4.23-.7,5.17-2.62.32-.66.48-1.39.74-2.07.41-1,1.06-2,1.46-3a4.21,4.21,0,0,0,.29-2.22C389.76,150.85,389.26,150.23,389.34,149.55Z" style="fill:#ffa8a7"></path><path d="M376.71,142.32c-2.22.54-2.91,1.93-3.06,5.05-.08,1.85-.86,5.22-3,6.45a4.8,4.8,0,0,0,2.69-1c1-.91,1.28-1,1.77-.41a3.51,3.51,0,0,0,1.33.89,2.4,2.4,0,0,0-.41,2.84c.86,1.66,5.19,2,8.86.4,0,0-5.88,1.4-7.09-.52s2-4,4.3-4.46c0,0-5.65.94-6.37-.94s1.66-3.09,5-3.71c0,0-4.66.52-5.34-1.09C374.59,143.9,376.06,142.9,376.71,142.32Z" style="fill:#f28f8f"></path><g id="freepik--Backpack--inject-8"><path d="M197.14,198.21c1.55,2.17,5.16-.43,11.6-3.51s1.53-32.45,1.53-32.45-10.59.87-11.74,10.91S197.14,198.21,197.14,198.21Z" style="fill:#FFC100"></path><path d="M197.14,198.21c1.55,2.17,5.16-.43,11.6-3.51s1.53-32.45,1.53-32.45-10.59.87-11.74,10.91S197.14,198.21,197.14,198.21Z" style="opacity:0.25"></path><path d="M248.26,142.21c6.24-.59,20.61,5.56,23.18,10.26,2.69,4.92,16.26,73.37,11.44,80.24-6.06,8.62-37.72,27-52.16,27.67-11.92.54-24.06-9.5-26.12-12.54-3.37-5-5.11-76.37-1.8-82.65C208.17,155,240.31,143,248.26,142.21Z" style="fill:#FFC100"></path><path d="M248.26,142.21c6.24-.59,20.61,5.56,23.18,10.26,2.69,4.92,16.26,73.37,11.44,80.24-6.06,8.62-37.72,27-52.16,27.67-11.92.54-24.06-9.5-26.12-12.54-3.37-5-5.11-76.37-1.8-82.65C208.17,155,240.31,143,248.26,142.21Z" style="fill:#fff;opacity:0.1"></path><path d="M248.26,142.21c6.24-.59,20.61,5.56,23.18,10.26,2.69,4.92,16.26,73.37,11.44,80.24-6.06,8.62-37.72,27-52.16,27.67-11.92.54-24.06-9.5-26.12-12.54-3.37-5-5.11-76.37-1.8-82.65C208.17,155,240.31,143,248.26,142.21Z" style="opacity:0.2"></path><path d="M201.09,201.6c0-3-.06-5.95-.06-8.81,0-1.14,0-2.27,0-3.38,0-2.22.05-4.36.09-6.39,0-1,.05-2,.08-3,0-1.44.11-2.8.17-4.08s.14-2.48.23-3.57c0-.37.06-.73.09-1.07.27-3.09.64-5.26,1.1-6.15.16-.28.33-.57.53-.87l.2-.29c.14-.2.28-.4.44-.6l.27-.35.49-.56.32-.36c.25-.27.51-.54.79-.82l.56-.53.38-.35.65-.58.33-.28.76-.63c5.79,1.9,11.27,3.71,11.43,3.8.36.2,6.33,3.2,6.72,11.94L229.35,210l.27,3.35c.28,4.69,7.63,47.6-5.79,46.13l-.54,0c-9.13-2.47-17.07-9.23-18.69-11.63a7.55,7.55,0,0,1-.76-2.32c-.09-.46-.19-1-.28-1.53-.05-.28-.09-.57-.14-.87-.14-.92-.27-1.94-.4-3.07,0-.37-.08-.75-.12-1.15-.62-5.92-1.11-14.13-1.44-22.94-.06-1.77-.12-3.55-.17-5.35,0-1.2-.07-2.4-.09-3.61,0-.6,0-1.2,0-1.8C201.13,204,201.11,202.8,201.09,201.6Z" style="fill:#FFC100"></path><path d="M201.92,169.21a14.06,14.06,0,0,1,.88-4c5.37-10.17,37.51-22.24,45.46-23,6.24-.59,20.61,5.56,23.18,10.26a38.42,38.42,0,0,1,1.89,6.24c-12,7.58-43.1,24.78-46.51,23.83-4.19-1.17-24.5-12.77-24.89-13.31Z" style="opacity:0.4"></path><path d="M199.56,215.82c.36-.22,5.54-4.72,6.15-5.09,1.08-.65,18.11,9.17,19.75,10.92,1.13,1.23.95,21.41.42,22.89-.2.53-6,4.55-6.15,5.08-.54,1.48-18.49-8.45-19.75-11.08S198,216.77,199.56,215.82Z" style="fill:#FFC100"></path><path d="M199.56,215.82c.36-.22,5.54-4.72,6.15-5.09,1.08-.65,18.11,9.17,19.75,10.92,1.13,1.23.95,21.41.42,22.89-.2.53-6,4.55-6.15,5.08-.54,1.48-18.49-8.45-19.75-11.08S198,216.77,199.56,215.82Z" style="opacity:0.18"></path><path d="M219.31,226.74c1.14,1.22.95,21.41.42,22.88s-18.49-8.45-19.75-11.08-2-21.77-.42-22.72C200.64,215.17,217.67,225,219.31,226.74Z" style="fill:#FFC100"></path><path d="M205.71,210.73c-.61.36-5.78,4.87-6.14,5.08,1.07-.64,18.1,9.18,19.73,10.93l6.15-5.08C223.82,219.89,206.79,210.08,205.71,210.73Z" style="opacity:0.4"></path><path d="M219.31,226.74c1.14,1.22.95,21.41.42,22.88s-18.49-8.45-19.75-11.08-2-21.77-.42-22.72C200.64,215.17,217.67,225,219.31,226.74Z" style="opacity:0.30000000000000004"></path><path d="M225.45,221.66c-1.26-.71-4.74,1.48-6.2,2.93s-2.72,7.86-6.67,9.14-10-3.64-11.46-7-3.36-10.4-1.59-13.1,5.08-4.33,8-3S224.89,218.54,225.45,221.66Z" style="fill:#FFC100"></path><path d="M225.45,221.66c-1.26-.71-4.74,1.48-6.2,2.93s-2.72,7.86-6.67,9.14-10-3.64-11.46-7-3.36-10.4-1.59-13.1,5.08-4.33,8-3S224.89,218.54,225.45,221.66Z" style="opacity:0.1"></path><path d="M207.51,225.72a3,3,0,0,1,1.6,2.68,1.21,1.21,0,0,1-1.77,1.19,2.93,2.93,0,0,1-1.6-2.68C205.79,225.83,206.58,225.29,207.51,225.72Z" style="fill:#37474f"></path><path d="M227.27,182.57s-2.81-8.15-13.27-13.26-10.63-3.25-13.45,2.6c-2.54,5.26-2.37,24.2-2.38,26S196,199.55,195.5,188s.36-22.72,10.64-30.31C220,147.46,242,139.88,252.72,141.43s20.59,6.2,20.61,17.28C273.33,158.71,260.92,178,227.27,182.57Z" style="fill:#FFC100"></path><path d="M227.27,182.57s-2.81-8.15-13.27-13.26-10.63-3.25-13.45,2.6c-2.54,5.26-2.37,24.2-2.38,26S196,199.55,195.5,188s.36-22.72,10.64-30.31C220,147.46,242,139.88,252.72,141.43s20.59,6.2,20.61,17.28C273.33,158.71,260.92,178,227.27,182.57Z" style="opacity:0.1"></path><path d="M255.54,155.39s4.09,2.07,4.46,4.57,2,8.49,1.07,10.21-4.09,2.13-4.57,1-1.37-8.35-2.17-10.18-4-4-4-4Z" style="fill:#FFC100"></path><path d="M231.79,162.6s4,1.76,4.41,4.27,2,8.24,1.11,10-4.09,2.14-4.58,1-1.37-8.34-2.17-10.17-4-3.58-4-3.58Z" style="fill:#FFC100"></path><g style="opacity:0.30000000000000004"><path d="M255.54,155.39s4.09,2.07,4.46,4.57,2,8.49,1.07,10.21-4.09,2.13-4.57,1-1.37-8.35-2.17-10.18-4-4-4-4Z" style="fill:#fff"></path><path d="M231.79,162.6s4,1.76,4.41,4.27,2,8.24,1.11,10-4.09,2.14-4.58,1-1.37-8.34-2.17-10.17-4-3.58-4-3.58Z" style="fill:#fff"></path></g><path d="M259.22,120.47h0c2.27-.77,5,0,7.79,2.38,5.48,4.83,8.75,14.55,7.31,21.72-.76,3.75-2.67,6-5.11,6.69h0l-62.85,19-10.49-30.63,17.69-2.71,6.5-2.12,21.84-6.92,3-1.08Z" style="fill:#455a64"></path><path d="M203.88,141.91c5.48,4.83,8.75,14.55,7.31,21.71s-7.05,9-12.53,4.22-8.76-14.55-7.32-21.71S198.4,137.08,203.88,141.91Z" style="fill:#37474f"></path><path d="M243.71,127.22s13.21,7.7,11.83,28.17L250.36,157s1.53-19.71-13-27.65Z" style="fill:#FFC100"></path><path d="M220.06,134.79s13.23,7.27,11.86,27.74l-5.2,1.57s1.34-19.25-13.16-27.19Z" style="fill:#FFC100"></path><g style="opacity:0.15"><path d="M254,141.45a36.75,36.75,0,0,1,1.55,13.94L250.36,157a38.78,38.78,0,0,0-1.82-13.55Z"></path><path d="M230.71,149.79a37.28,37.28,0,0,1,1.21,12.74l-5.2,1.57a37.49,37.49,0,0,0-1.62-12.3Z"></path></g><path d="M195.6,149c2.1-1.35,4.35.47,5.38,2.27a9.78,9.78,0,0,1,1,5.05,3.77,3.77,0,0,1-.42,2.12c-.38.55-1,.8-1.5.24-.19-.22,0-.9.35-.82s.23.17.31.05.06-.51.07-.68a10.42,10.42,0,0,0-.25-2,9,9,0,0,0-.91-3,5.81,5.81,0,0,0-1.87-2.07c-.68-.41-1.7-.58-1.94.36-.39,1.5.49,3.53,1,4.93a17.59,17.59,0,0,0,3,5.77c.77.93,2.92,3,4.27,2.15s1.24-3.39,1.25-4.6a17,17,0,0,0-1-5.82,17.88,17.88,0,0,0-3.11-6,5.06,5.06,0,0,0-2.17-1.44c-.67-.23-2.24-.73-2.5.23-.07.23-.53.68-.75.34-.78-1.18.37-2.19,1.54-2.48a6.14,6.14,0,0,1,5.21,1.28c2.1,1.65,3.28,4.66,4.2,7.09a18.76,18.76,0,0,1,1.22,8.19c-.19,2.17-.89,4.9-3.35,5.45-2.63.59-5.38-1.34-6.86-3.37a20.19,20.19,0,0,1-3.2-7.94C194.14,152.58,193.87,150.05,195.6,149Z" style="fill:#263238"></path></g><path d="M302.52,229.27l-41.18,1.49-1.13,67.41s-11,8-18,18.08c-5.12,7.29-21.81,38.1-24.77,42.75l-5.55,8.7c-.54,1.55-.23,4.89,3.45,6.76s7.89.72,8.68-.65c0,0,.75-1.74,7.09-7.77s52-49.4,54.45-52.37c3.65-4.44,5.81-8.48,10.2-24.09C301.16,270.22,303,237.72,302.52,229.27Z" style="fill:#ffa8a7"></path><path d="M303.13,227.62s0,13.43-1.86,34.75-3.59,36.74-12,48.36S268.06,334.64,264,338.31a38.65,38.65,0,0,1-23.82-21.46l12.13-17.24-6.41-64.39Z" style="fill:#455a64"></path><path d="M251.31,301.23s4.71,15.1,5.39,17.62,6,19.49,6,19.49.52-22.74-.49-26.87S251.31,301.23,251.31,301.23Z" style="fill:#37474f"></path><path d="M301.89,234.74s.59,10.68-5.27,18.69-10.25,10.31-10.25,10.31l5.05,35.5-9.92-36.67Z" style="fill:#37474f"></path><path d="M205.39,373.75c-.81-.25-2.49,2.44-2.67,3.39s.4,3.16,1.32,5.29a25.68,25.68,0,0,1,2.17,8.08,31.85,31.85,0,0,0,2.94,11.24c2.15,4.45,8.32,12.2,19.34,10.27,6.68-1.18,7.4-4,7.14-5.57Z" style="fill:#455a64"></path><path d="M226.35,372.45c-.9,3.34-2.21,12.55,2.91,19.56,3.45,4.72,5.49,9.51,4.81,14-.71,4.66-17.84.43-20.38-2.66a23.3,23.3,0,0,1-4.91-10.95c-.72-3.52-.44-5.95-1.28-8.54-.9-2.8-3-6.15-2.57-8.8.21-1.46,2.13-3.9,3.92-5.87,1.64-1.81,3-3.65,4.1-3.22l-.68,1.08a10.65,10.65,0,0,0,3.57,2.82c.57.33.64,2.72,1.34,2.87s.51-1.79,1.78-2.25C223.1,369,226.35,372.45,226.35,372.45Z" style="fill:#FFC100"></path><path d="M226,372.46c-.9,3.33-2.21,12.55,2.91,19.56,3.45,4.72,5.49,9.51,4.81,14-.71,4.66-17.84.43-20.38-2.66a23.3,23.3,0,0,1-4.91-11c-.72-3.52-.44-6-1.28-8.55-.9-2.8-3-6.14-2.57-8.8.21-1.45,2.13-3.89,3.92-5.86,1.64-1.81,3-3.65,4.1-3.22l-.68,1.07a10.56,10.56,0,0,0,3.57,2.83c.57.32.64,2.72,1.34,2.86s.51-1.78,1.78-2.25C222.7,369,226,372.46,226,372.46Z" style="opacity:0.4"></path><path d="M213.69,403.34s3.08-6.85,10.42-8.18,9.26,1.53,10.07,2.53,4.48,6.84-.1,10.58C234.08,408.27,222.45,413.55,213.69,403.34Z" style="fill:#fafafa"></path><path d="M300.32,403.39s-5-57.44-7.3-82.2c-4.58-28.63-13.73-57.7-13.73-57.7s6.19-3.45,11.93-11.69c8.34-12,8.15-22.07,8.15-22.07l-4.82-.33-52.16,2.13c.16,8.62-.16,20.72,1,31.89,2.42,22.9,24.66,63.43,24.66,63.43-.21,3.16-2.49,16.56.74,28.27,5.09,18.47,16.31,41.65,18.41,51.74h0l2.09,8.45,13-3.2-2-8.72Z" style="fill:#ffa8a7"></path><path d="M241.17,229.06c-.85,9.66-1.52,17.63-1.39,24.72s2.15,16.79,5.42,26.6,12.76,33.5,14,36.95,4.25,26.18,4.25,26.18S283.85,348,297.51,339c0,0-2-22.78-3.23-28.56s-12.78-47.84-12.78-47.84,20.66-13.75,21-33.3Z" style="fill:#455a64"></path><path d="M287.38,420.07c-.8.36-.26,3.63.25,4.5a11,11,0,0,0,4.33,3.6,17.69,17.69,0,0,1,6.28,5.16,30.13,30.13,0,0,0,10.36,7.81c4.75,2,10.79,1.65,16.09-.93s5.68-4.15,5.33-6.26Z" style="fill:#455a64"></path><path d="M302.91,404.58c1.6,3.23,5.81,11.84,12.4,15.41,5.24,2.85,12.18,5.91,14.74,9.89,2.66,4.14-6.63,8.05-10.8,8.33-3.25.21-7.53.64-11-1.06a27.57,27.57,0,0,1-4.78-3c-3-2.26-5.29-5.24-7.48-7.06s-6.58-3.36-8.1-5.71c-.84-1.29-1-4.52-1-7.3,0-2.56-.41-4.89.76-5.32l.36,1.44a25.78,25.78,0,0,0,4.83-.42c.67-.14,2.38,1.69,3,1.32s-.83-1.75-.16-3C298,404.08,302.91,404.58,302.91,404.58Z" style="fill:#FFC100"></path><path d="M302.91,404.58c1.6,3.23,5.81,11.84,12.4,15.41,5.24,2.85,12.18,5.91,14.74,9.89,2.66,4.14-6.63,8.05-10.8,8.33-3.25.21-7.53.64-11-1.06a27.57,27.57,0,0,1-4.78-3c-3-2.26-5.29-5.24-7.48-7.06s-6.58-3.36-8.1-5.71c-.84-1.29-1-4.52-1-7.3,0-2.56-.41-4.89.76-5.32l.36,1.44a25.78,25.78,0,0,0,4.83-.42c.67-.14,2.38,1.69,3,1.32s-.83-1.75-.16-3C298,404.08,302.91,404.58,302.91,404.58Z" style="opacity:0.4"></path><path d="M308.28,437.15s.47-8.32,7.16-12.32,9.58-1.25,10.75-.58,6.92,4.35,3.83,9.7C330,434,321.49,443.14,308.28,437.15Z" style="fill:#fafafa"></path><path d="M302.86,169.77c-1.26-9.14-6.93-19.5-21.09-20.06l-18.28.87c-4.5,1.17-16.75,4.17-21.45,5.82l-.88,37.08s-1.12,28.58-.77,43.89c13.09,8.3,45,9.95,62.88-3.62C303.8,221.11,304.11,178.82,302.86,169.77Z" style="fill:#FFC100"></path><path d="M302.86,169.77c-1.26-9.14-6.93-19.5-21.09-20.06l-18.28.87c-4.5,1.17-16.75,4.17-21.45,5.82l-.88,37.08s-1.12,28.58-.77,43.89c13.09,8.3,45,9.95,62.88-3.62C303.8,221.11,304.11,178.82,302.86,169.77Z" style="opacity:0.4"></path><path d="M301.77,110.31a18.4,18.4,0,0,0-36.75-.75l-8.46-5.79a6.5,6.5,0,0,0-5.34,2.07c-2.25,2.45-.71,9.84,2.42,17,0,0,3.25,13.16,4.45,15.3a6,6,0,0,0,3.56,2.69l-.43-8,33.38-3-3.35-2.3A18.4,18.4,0,0,0,301.77,110.31Z" style="fill:#263238"></path><path d="M260.56,123.26c-1,.67-2.63-1.33-4-2.66s-5.7-3.07-7.7,1.51,2.24,10.6,5.65,11.55c5.88,1.64,6.63-2.12,6.63-2.12l1.13,21c5.2,5.44,22.31,3.54,18.92-1.17L281,145s5.3.63,7.86.15c4.26-.8,6.84-4.27,8-8.94,1.84-7.51,2.44-13.55.2-28.13-2.46-16-21.13-15.53-31-8.87S260.56,123.26,260.56,123.26Z" style="fill:#ffa8a7"></path><path d="M300.83,93a6.9,6.9,0,0,0-4.53-.44,5.47,5.47,0,0,0-3.37-5.44,6.32,6.32,0,0,0-6.89,1c.42-1.63-1.09-3.26-2.75-3.6a8.84,8.84,0,0,0-4.91.9c-2.33.94-4.62,2-7,2.82-4.17,1.47-8.63,2.35-12.39,4.7a7.71,7.71,0,0,0-2.34,2.06,6.62,6.62,0,0,0-1,4.18,8.53,8.53,0,0,0,.23,1.43,3.83,3.83,0,0,0-1-.76,3.57,3.57,0,0,0-4.83,1.77l6.39,3.17c-.13,1.28-.27,2.55-.38,3.83-.28,3.39-.86,7.33,0,10.67a2.48,2.48,0,0,0,.43,1.12,6.1,6.1,0,0,1,.89,1.11l1.13,2c.51.91,1.31,2,2.5,1.83.66-.08,1-1,1.14-1.54,1.59-6,1.54-12.32,3.54-18.17a1,1,0,0,1,.26-.46,1.07,1.07,0,0,1,.81-.1c3,.49,6.1,1,9.16,1.35,6.95.82,14.4.88,20.46-2.63,2.36-1.37,6.32-4.19,6.69-7.14A3.92,3.92,0,0,0,300.83,93Z" style="fill:#263238"></path><path d="M281,145s-9.62-1.62-13-3.28a11,11,0,0,1-4.77-4.42,15.1,15.1,0,0,0,2.8,5.3c2.54,3.05,15.06,4.94,15.06,4.94Z" style="fill:#f28f8f"></path><path d="M277.9,121.19a1.71,1.71,0,1,1-1.77-1.72A1.75,1.75,0,0,1,277.9,121.19Z" style="fill:#263238"></path><path d="M275.43,113.6l-4.17,2.12a2.45,2.45,0,0,1,1.07-3.22A2.28,2.28,0,0,1,275.43,113.6Z" style="fill:#263238"></path><path d="M279.84,134.05l4.43,1.5a2.29,2.29,0,0,1-2.92,1.54A2.44,2.44,0,0,1,279.84,134.05Z" style="fill:#f28f8f"></path><path d="M296.21,115.37l-3.74-2.64a2.21,2.21,0,0,1,3.13-.55A2.33,2.33,0,0,1,296.21,115.37Z" style="fill:#263238"></path><path d="M268,116l-15,3.13a5.48,5.48,0,0,1,4.33,2.19l10.61-2Z" style="fill:#263238"></path><path d="M295.25,120.88a1.71,1.71,0,1,1-1.77-1.73A1.76,1.76,0,0,1,295.25,120.88Z" style="fill:#263238"></path><path d="M302.57,115.35l-1-.11c-3.17-.28-7.31-.31-9.82.51-3.15,1-4.28,2.13-6,2.17s-3-1-6.33-2c-2.66-.71-7.09-.53-10.49-.12l-1.05.14a1.75,1.75,0,0,0-1.2,1.79,3.82,3.82,0,0,0,1,2,2.32,2.32,0,0,1,.32.82c.34,1.43.51,4.16,1.18,5.67a6.76,6.76,0,0,0,1.31,2,6.37,6.37,0,0,0,.67.6l.39.26a6,6,0,0,0,1.17.55l.2.06.31.09.32.07a6.5,6.5,0,0,0,1,.15c.14,0,.29,0,.44,0h.56c4.31-.06,6.15-2.19,7.26-4.37s.89-5.22,2.87-5.25h.19a.57.57,0,0,1,.18,0c1.46.32,1.23,3.12,2.11,5.12a8.44,8.44,0,0,0,1.37,2.17q.17.18.33.33l.18.16.18.15.17.13.19.13.14.09.1.06a5.92,5.92,0,0,0,1.7.67l.16,0a8.52,8.52,0,0,0,2.1.18,6.32,6.32,0,0,0,6.15-4.06c.69-1.54,1-4.28,1.34-5.72a1.87,1.87,0,0,1,.38-.76,4.07,4.07,0,0,0,.95-2.11C303.68,116.23,303.11,115.41,302.57,115.35Zm-20.82,8.43a6.76,6.76,0,0,1-1.55,3h0a6.18,6.18,0,0,1-4.72,1.8,5,5,0,0,1-4.48-2.11l-.14-.21-.12-.21-.11-.2-.09-.18-.07-.15a.61.61,0,0,1,0-.12l-.09-.22h0a6.64,6.64,0,0,1-.21-.63,0,0,0,0,1,0,0c0-.13-.07-.26-.1-.38s-.1-.43-.14-.61a.52.52,0,0,1,0-.11l0-.11c-.3-1.51-.64-4.46.11-5.14s2.72-1.42,5.93-1.16l.34,0a14.3,14.3,0,0,1,1.46.23l.56.13a12.48,12.48,0,0,1,1.42.45l.44.18a4.91,4.91,0,0,1,.46.22.31.31,0,0,1,.1,0l.17.09a2.75,2.75,0,0,1,.94.78C282.37,120.14,282.14,122.1,281.75,123.78Zm18.72-1c-.27,1.18-.85,3.73-3.12,4.88a5.62,5.62,0,0,1-2.4.58,5,5,0,0,1-4.75-2.17,0,0,0,0,1,0,0l-.09-.14-.09-.16-.05-.08-.12-.24-.12-.28-.06-.13,0-.08a.49.49,0,0,0,0-.11l0-.09a7.31,7.31,0,0,1-.28-1.12c-.3-1.67-.44-3.62.18-4.56s3-2,5.29-2.32a13.68,13.68,0,0,1,1.47-.14h1.06l.24,0,.4,0a7.16,7.16,0,0,1,.74.12l.17,0h.05l.12,0,.17.05.21.07a2.83,2.83,0,0,1,.35.14l.06,0a2.69,2.69,0,0,1,.78.5C301.25,118.31,300.81,121.29,300.47,122.8Z" style="fill:#263238"></path><path d="M281.75,123.78a6.76,6.76,0,0,1-1.55,3h0a6.18,6.18,0,0,1-4.72,1.8,5,5,0,0,1-4.48-2.11l-.14-.21-.12-.21-.11-.2-.09-.18-.07-.15a.61.61,0,0,1,0-.12l-.09-.22h0a6.64,6.64,0,0,1-.21-.63,0,0,0,0,1,0,0c0-.13-.07-.26-.1-.38s-.1-.43-.14-.61a.52.52,0,0,1,0-.11l0-.11c-.3-1.51-.64-4.46.11-5.14s2.72-1.42,5.93-1.16l.34,0a14.3,14.3,0,0,1,1.46.23l.56.13a12.48,12.48,0,0,1,1.42.45l.44.18a4.91,4.91,0,0,1,.46.22.31.31,0,0,1,.1,0l.17.09a2.75,2.75,0,0,1,.94.78C282.37,120.14,282.14,122.1,281.75,123.78Z" style="fill:#FFC100"></path><path d="M281.75,123.78a6.76,6.76,0,0,1-1.55,3h0a6.18,6.18,0,0,1-4.72,1.8,5,5,0,0,1-4.48-2.11l-.14-.21-.12-.21-.11-.2-.09-.18-.07-.15a.61.61,0,0,1,0-.12l-.09-.22h0a6.64,6.64,0,0,1-.21-.63,0,0,0,0,1,0,0c0-.13-.07-.26-.1-.38s-.1-.43-.14-.61a.52.52,0,0,1,0-.11l0-.11c-.3-1.51-.64-4.46.11-5.14s2.72-1.42,5.93-1.16l.34,0a14.3,14.3,0,0,1,1.46.23l.56.13a12.48,12.48,0,0,1,1.42.45l.44.18a4.91,4.91,0,0,1,.46.22.31.31,0,0,1,.1,0l.17.09a2.75,2.75,0,0,1,.94.78C282.37,120.14,282.14,122.1,281.75,123.78Z" style="opacity:0.4"></path><path d="M300.47,122.8c-.27,1.18-.85,3.73-3.12,4.88a5.62,5.62,0,0,1-2.4.58,5,5,0,0,1-4.75-2.17,0,0,0,0,1,0,0l-.09-.14-.09-.16-.05-.08-.12-.24-.12-.28-.06-.13,0-.08a.49.49,0,0,0,0-.11l0-.09a7.31,7.31,0,0,1-.28-1.12c-.3-1.67-.44-3.62.18-4.56s3-2,5.29-2.32a13.68,13.68,0,0,1,1.47-.14h1.06l.24,0,.4,0a7.16,7.16,0,0,1,.74.12l.17,0h.05l.12,0,.17.05.21.07a2.83,2.83,0,0,1,.35.14l.06,0a2.69,2.69,0,0,1,.78.5C301.25,118.31,300.81,121.29,300.47,122.8Z" style="fill:#FFC100"></path><path d="M300.47,122.8c-.27,1.18-.85,3.73-3.12,4.88a5.62,5.62,0,0,1-2.4.58,5,5,0,0,1-4.75-2.17,0,0,0,0,1,0,0l-.09-.14-.09-.16-.05-.08-.12-.24-.12-.28-.06-.13,0-.08a.49.49,0,0,0,0-.11l0-.09a7.31,7.31,0,0,1-.28-1.12c-.3-1.67-.44-3.62.18-4.56s3-2,5.29-2.32a13.68,13.68,0,0,1,1.47-.14h1.06l.24,0,.4,0a7.16,7.16,0,0,1,.74.12l.17,0h.05l.12,0,.17.05.21.07a2.83,2.83,0,0,1,.35.14l.06,0a2.69,2.69,0,0,1,.78.5C301.25,118.31,300.81,121.29,300.47,122.8Z" style="opacity:0.4"></path><polygon points="284.94 121.08 285.5 132.69 292.32 130.98 284.94 121.08" style="fill:#f28f8f"></polygon><path d="M242.05,269.37s15.23.69,23.77-.89c0,0,8.9,31.56,9.37,35.22s-14.85,3.92-17.95,3.5-5.49-.85-7.86-8.9S243.08,277.32,242.05,269.37Z" style="fill:#37474f"></path><path d="M246.78,155c-8.78,1.52-11.94,3.54-14.61,12.78-2.86,9.92-10.86,37.76-12.71,47.69-1.13,6.11-2.89,10,2.29,14,6.63,5.15,26.05,19.4,37.77,25.54s30.22,6.25,30.22,6.25l-12.84-7.77-.55-4.7-36.08-30.06,13.78-40.57S259.15,158.92,246.78,155Z" style="fill:#ffa8a7"></path><path d="M265.18,243.12l0,1.2a3.41,3.41,0,0,0,1.63,3l32,19.39a3.4,3.4,0,0,0,3.4.07l60.27-33a3.38,3.38,0,0,0,1.77-2.91l0-.83-63.72,34.94Z" style="fill:#FFC100"></path><g style="opacity:0.5"><path d="M265.18,243.12l0,1.2a3.41,3.41,0,0,0,1.63,3l32,19.39a3.4,3.4,0,0,0,3.4.07l60.27-33a3.38,3.38,0,0,0,1.77-2.91l0-.83-63.72,34.94Z" style="fill:#fff"></path></g><g style="opacity:0.1"><path d="M265.18,243.12l0,1.2a3.41,3.41,0,0,0,1.63,3l32,19.39a3.4,3.4,0,0,0,3.4.07l60.27-33a3.38,3.38,0,0,0,1.77-2.91l0-.83-63.72,34.94Z"></path></g><path d="M364.28,230l-34.84-21.15a2,2,0,0,0-2,0l-62,34a.45.45,0,0,0,0,.78l35.17,21.36Z" style="fill:#FFC100"></path><g style="opacity:0.85"><path d="M364.28,230l-34.84-21.15a2,2,0,0,0-2,0l-62,34a.45.45,0,0,0,0,.78l35.17,21.36Z" style="fill:#fff"></path></g><polygon points="300.86 261.61 282.06 250.21 337.87 219.62 356.77 230.96 300.86 261.61" style="fill:#FFC100"></polygon><g style="opacity:0.6000000000000001"><polygon points="300.86 261.61 282.06 250.21 337.87 219.62 356.77 230.96 300.86 261.61" style="fill:#fff"></polygon></g><polygon points="291.62 231.18 291.97 231.39 301.18 236.98 317.98 227.76 318.33 227.58 308.77 221.78 291.62 231.18" style="fill:#FFC100"></polygon><polygon points="291.97 231.39 301.18 236.98 317.98 227.76 308.76 222.17 291.97 231.39" style="fill:#FFC100"></polygon><g style="opacity:0.6000000000000001"><polygon points="291.97 231.39 301.18 236.98 317.98 227.76 308.76 222.17 291.97 231.39" style="fill:#fff"></polygon></g><path d="M300.56,264.92l-.05,2.27a3.46,3.46,0,0,0,1.71-.42l60.27-33a3.38,3.38,0,0,0,1.77-2.91l0-.83Z" style="fill:#FFC100"></path><g style="opacity:0.03"><path d="M300.56,264.92l-.05,2.27a3.46,3.46,0,0,0,1.71-.42l60.27-33a3.38,3.38,0,0,0,1.77-2.91l0-.83Z" style="fill:#fff"></path></g><g style="opacity:0.2"><path d="M300.56,264.92l-.05,2.27a3.46,3.46,0,0,0,1.71-.42l60.27-33a3.38,3.38,0,0,0,1.77-2.91l0-.83Z"></path></g><path d="M301.51,265.45a4.05,4.05,0,0,0,3.48-.19l60-32.91a4,4,0,0,0,2-2.77L374.36,191a4.93,4.93,0,0,0,.07-.66,4,4,0,0,0-1.13-2.89l-62.36,34.2a3,3,0,0,0-1.5,2Z" style="fill:#FFC100"></path><g style="opacity:0.4"><path d="M301.51,265.45a4.05,4.05,0,0,0,3.48-.19l60-32.91a4,4,0,0,0,2-2.77L374.36,191a4.93,4.93,0,0,0,.07-.66,4,4,0,0,0-1.13-2.89l-62.36,34.2a3,3,0,0,0-1.5,2Z" style="fill:#fff"></path></g><path d="M300.56,264.93l.4.24a5.68,5.68,0,0,0,.55.28l7.93-41.72a3,3,0,0,1,1.5-2l62.36-34.2a3.94,3.94,0,0,0-.81-.64L310,221.1a3,3,0,0,0-1.49,2.05Z" style="fill:#FFC100"></path><g style="opacity:0.6000000000000001"><path d="M300.56,264.93l.4.24a5.68,5.68,0,0,0,.55.28l7.93-41.72a3,3,0,0,1,1.5-2l62.36-34.2a3.94,3.94,0,0,0-.81-.64L310,221.1a3,3,0,0,0-1.49,2.05Z" style="fill:#fff"></path></g><path d="M310,222.47l-.94-.58a3,3,0,0,0-.58,1.26l-7.95,41.78.4.24a5.68,5.68,0,0,0,.55.28l7.93-41.72A2.93,2.93,0,0,1,310,222.47Z" style="fill:#FFC100"></path><path d="M310,222.47l-.94-.58a3,3,0,0,0-.58,1.26l-7.95,41.78.4.24a5.68,5.68,0,0,0,.55.28l7.93-41.72A2.93,2.93,0,0,1,310,222.47Z" style="fill:#fff;opacity:0.5"></path><path d="M310,222.47l-.94-.58a3,3,0,0,0-.58,1.26l-7.95,41.78.4.24a5.68,5.68,0,0,0,.55.28l7.93-41.72A2.93,2.93,0,0,1,310,222.47Z" style="opacity:0.1"></path><path d="M335.67,230.47c.49-2.58,3.24-6,6.14-7.55s4.85-.79,4.36,1.79-3.24,6-6.14,7.55S335.18,233.05,335.67,230.47Z" style="fill:#455a64"></path><path d="M264.91,239.19c3.35,2.36,7,1,11.43,1.51s8.27,1.63,11.84,1.52,5.34.63,2.84,3.49-9.69,1.22-11.62,2.09-3.15,4-.91,6.6c2.1,2.44-12-2.28-13.83-5.17S262.36,239.56,264.91,239.19Z" style="fill:#ffa8a7"></path></g></g></svg>